<?xml version="1.0" standalone="no"?><svg xmlns="http://www.w3.org/2000/svg" viewBox="0 0 1440 320"><path fill="#ff00F5" fill-opacity="1" d="M0,192L20,181.3C40,171,80,149,120,138.7C160,128,200,128,240,149.3C280,171,320,213,360,224C400,235,440,213,480,218.7C520,224,560,256,600,234.7C640,213,680,139,720,101.3C760,64,800,64,840,85.3C880,107,920,149,960,160C1000,171,1040,149,1080,154.7C1120,160,1160,192,1200,213.3C1240,235,1280,245,1320,245.3C1360,245,1400,235,1420,229.3L1440,224L1440,0L1420,0C1400,0,1360,0,1320,0C1280,0,1240,0,1200,0C1160,0,1120,0,1080,0C1040,0,1000,0,960,0C920,0,880,0,840,0C800,0,760,0,720,0C680,0,640,0,600,0C560,0,520,0,480,0C440,0,400,0,360,0C320,0,280,0,240,0C200,0,160,0,120,0C80,0,40,0,20,0L0,0Z"></path></svg>